<?xml version="1.0" encoding="UTF-8" standalone="no"?>
<!DOCTYPE svg PUBLIC "-//W3C//DTD SVG 1.1//EN"
"http://www.w3.org/Graphics/SVG/1.1/DTD/svg11.dtd">


<!-- Page 1 -->
<svg x="0" y="0" width="877" height="568" viewBox="0 0 877 568" version="1.1" xmlns="http://www.w3.org/2000/svg" xmlns:xlink="http://www.w3.org/1999/xlink"
style="display: block;margin-left: auto;margin-right: auto;">
<defs>
<clipPath id="c0_1"><path d="M-9.5,634.2l0,-684.3l908.9,0l0,684.3Z" /></clipPath>
<clipPath id="c1_1"><path d="M-0.3,464.6l0,-424.7l262.6,0l0,424.7Z" /></clipPath>
<clipPath id="c2_1"><path d="M618.3,466.2l0,-400.3l259.7,0l0,400.3Z" /></clipPath>

<style type="text/css"><![CDATA[

.g1_1{
fill: #FFFFFF;
}
.g2_1{
fill: #CAFB4E;
fill-opacity: 0.3312;
}
.g3_1{
fill: #FF2600;
fill-opacity: 0.2512;
}
.g4_1{
fill: none;
stroke: #000000;
stroke-width: 0.22192882;
stroke-linecap: butt;
stroke-linejoin: miter;
stroke-miterlimit: 4;
}
.g5_1{
fill: none;
stroke: #000000;
stroke-width: 0.22191353;
stroke-linecap: butt;
stroke-linejoin: miter;
stroke-miterlimit: 4;
}
.g6_1{
fill: #FFFFFF;
fill-opacity: 0.75;
}
.g7_1{
fill: none;
stroke: #0096FF;
stroke-width: 2.219288;
stroke-linecap: butt;
stroke-linejoin: miter;
stroke-miterlimit: 4;
}
.g8_1{
fill: none;
stroke: #000000;
stroke-width: 2.6631458;
stroke-linecap: butt;
stroke-linejoin: miter;
stroke-miterlimit: 4;
stroke-dasharray: 3,3;
}
.g9_1{
fill: none;
stroke: #FF2600;
stroke-width: 3.5508611;
stroke-linecap: butt;
stroke-linejoin: miter;
stroke-miterlimit: 4;
stroke-dasharray: 4,4;
}
.g10_1{
fill: none;
stroke: #FF2600;
stroke-width: 2.6631458;
stroke-linecap: butt;
stroke-linejoin: miter;
stroke-miterlimit: 4;
}
.g11_1{
fill: #FF2600;
}
.g12_1{
fill: none;
stroke: #FF2600;
stroke-width: 2.219288;
stroke-linecap: butt;
stroke-linejoin: miter;
stroke-miterlimit: 4;
stroke-dasharray: 3,3;
}
.g13_1{
fill: none;
stroke: #929292;
stroke-width: 0.8911986;
stroke-linecap: butt;
stroke-linejoin: miter;
stroke-miterlimit: 4;
}
.g14_1{
fill: none;
stroke: #929292;
stroke-width: 0.6277028;
stroke-linecap: butt;
stroke-linejoin: miter;
stroke-miterlimit: 4;
}
.g15_1{
fill: none;
stroke: #FF2600;
stroke-width: 1.5609;
stroke-linecap: butt;
stroke-linejoin: miter;
stroke-miterlimit: 4;
stroke-dasharray: 2,2;
}
.g16_1{
fill: none;
stroke: #0096FF;
stroke-width: 1.5609;
stroke-linecap: butt;
stroke-linejoin: miter;
stroke-miterlimit: 4;
}
.g17_1{
fill: none;
stroke: #797979;
stroke-width: 1.5609;
stroke-linecap: butt;
stroke-linejoin: miter;
stroke-miterlimit: 4;
stroke-dasharray: 2,2;
}
.g18_1{
fill: none;
stroke: #000000;
stroke-width: 1.7754306;
stroke-linecap: butt;
stroke-linejoin: miter;
stroke-miterlimit: 4;
}
.g19_1{
fill: none;
stroke: #FF2600;
stroke-width: 14.2034445;
stroke-linecap: butt;
stroke-linejoin: miter;
stroke-miterlimit: 4;
}

.s1_1{
font-size: 24.95px;
font-family: LucidaGrande_e;
fill: #929292;
}
.s2_1{
font-size: 24.95px;
font-family: LucidaGrande_e;
fill: #000000;
}
.s3_1{
font-size: 24.95px;
font-family: LucidaSans_h;
fill: #212121;
}
.s4_1{
font-size: 22.28px;
font-family: LucidaSans_h;
fill: #000000;
}
.s5_1{
font-size: 24.95px;
font-family: LucidaSans-Italic_k;
fill: #929292;
}
.s6_1{
font-size: 24.95px;
font-family: LucidaSans-Italic_k;
fill: #FF2600;
}
.s7_1{
font-size: 20.50px;
font-family: LucidaSans_h;
fill: #000000;
}
.s8_1{
font-size: 21.39px;
font-family: LucidaSans_h;
fill: #000000;
}
.s9_1{
font-size: 21.39px;
font-family: LucidaSans_h;
fill: #424242;
}
.s10_1{
font-size: 21.39px;
font-family: LucidaSans-Italic_k;
fill: #424242;
}
.s11_1{
font-size: 21.39px;
font-family: LucidaSans-Italic_k;
fill: #FF2600;
}

]]></style>

</defs>
<path d="M0,0
L0,568
L877,568
L877,0 Z " 
fill="#FFFFFF" stroke="none" />
<g clip-path="url(#c0_1)">
<path d="M-9.5,635.4l908.9,0l0,-685.5l-908.9,0l0,685.5Z" class="g1_1" />
</g>
<g clip-path="url(#c1_1)">
<path d="M44.9,99.9C54.4,83.1,55,61,70.6,49.3C83.4,39.7,101,41,113.7,50.9c18.2,14.3,20.2,39.3,21.3,62.6c1.9,42.1,13,87.4,51.3,95c16.9,3.4,35.6,-3.5,50.3,5.9c11.1,7.2,15.7,20.1,13.6,32.3c-3.2,18.1,-19.3,30.2,-34.8,40.6c-8.6,5.9,-17.2,11.8,-24.3,19.4c-10.3,11.2,-16.7,25.8,-15.2,40.9c2.3,23.6,21.7,41.1,45.1,46.2c11.2,2.5,23.6,2.5,32,10.4c10.1,9.6,9.9,25.5,1.5,37.1c-5.6,7.8,-14.1,12.7,-23.1,15.8c-12.6,4.4,-26.2,5.4,-39.3,2.6C175.3,456,160.6,446.3,149.3,433.3C102.2,378.5,129,285.8,72.9,237.7C52.8,220.4,24.5,213.2,10.1,190.7C3,179.7,0.3,166.3,4,153.7C10.5,131.5,33.8,119.8,44.9,99.9Z" class="g2_1" />
</g>
<g clip-path="url(#c2_1)">
<path d="M752.5,80.6C742.1,91.8,741.6,108,739.1,122.9C732.6,161.5,710.6,196,676.9,215c-9.1,5.1,-19.5,9.7,-22.9,19.6c-3.6,10.8,2.3,22.2,12.6,27.4c10.6,5.2,22.9,2.8,34.1,-1.1c5.8,-1.9,11.7,-4.2,17.6,-2.6c19.6,5.1,20.4,35.7,-3.5,51.2c-16.1,10.5,-36.5,11.7,-53,21.7c-26.8,16.2,-34,44.7,-38.8,67.9c-5.2,24.9,-3.5,51.6,18.6,61.1c9.1,3.9,19.4,1.8,28.8,-1.4c56.9,-19.5,84.7,-70.3,102.4,-127c12.4,-39.6,19.9,-82.1,55.3,-102.7c13,-7.6,29.2,-11.1,38.7,-22.9c6.4,-7.9,8.6,-17.9,8.7,-28.1c0.3,-30.7,-17.3,-57.7,-38.7,-79.8C811.3,71.9,774.2,57.2,752.5,80.6Z" class="g3_1" />
</g>
<path d="M343.5,348.8c19.6,17.3,19.6,45.3,0,62.6c-19.6,17.3,-51.3,17.3,-70.9,0C253,394.1,253,366.1,272.6,348.8c19.6,-17.3,51.3,-17.3,70.9,0Z" class="g1_1" />
<path d="M343.5,348.8c19.6,17.3,19.6,45.3,0,62.6c-19.6,17.3,-51.3,17.3,-70.9,0C253,394.1,253,366.1,272.6,348.8c19.6,-17.3,51.3,-17.3,70.9,0" class="g4_1" />
<path d="M625.9,163.9c23.8,19.5,24.2,51.6,0.9,71.6c-23.3,20.1,-61.5,20.6,-85.2,1.1C517.8,217.1,517.4,185,540.7,164.9c23.3,-20.1,61.4,-20.5,85.2,-1Z" class="g1_1" />
<path d="M625.9,163.9c23.8,19.5,24.2,51.6,0.9,71.6c-23.3,20.1,-61.5,20.6,-85.2,1.1C517.8,217.1,517.4,185,540.7,164.9c23.3,-20.1,61.4,-20.5,85.2,-1" class="g5_1" />
<path d="M368.4,164.9c26.7,20.6,26.7,54.1,0,74.7c-26.6,20.6,-69.9,20.6,-96.6,0c-26.6,-20.6,-26.6,-54.1,0,-74.7c26.7,-20.6,70,-20.6,96.6,0Z" class="g1_1" />
<path d="M368.4,164.9c26.7,20.6,26.7,54.1,0,74.7c-26.6,20.6,-69.9,20.6,-96.6,0c-26.6,-20.6,-26.6,-54.1,0,-74.7c26.7,-20.6,70,-20.6,96.6,0" class="g4_1" />
<path d="M614.7,367.5c19.4,15.1,19.4,39.5,0,54.6c-19.4,15.1,-50.8,15.1,-70.2,0c-19.3,-15.1,-19.3,-39.5,0,-54.6c19.4,-15.1,50.8,-15.1,70.2,0Z" class="g1_1" />
<path d="M614.7,367.5c19.4,15.1,19.4,39.5,0,54.6c-19.4,15.1,-50.8,15.1,-70.2,0c-19.3,-15.1,-19.3,-39.5,0,-54.6c19.4,-15.1,50.8,-15.1,70.2,0" class="g4_1" />
<path d="M497.9,106.4c23.2,18,23.2,47.2,0,65.2c-23.1,18.1,-60.7,18.1,-83.8,0c-23.2,-18,-23.2,-47.2,0,-65.2c23.1,-18,60.7,-18,83.8,0Z" class="g1_1" />
<path d="M497.9,106.4c23.2,18,23.2,47.2,0,65.2c-23.1,18.1,-60.7,18.1,-83.8,0c-23.2,-18,-23.2,-47.2,0,-65.2c23.1,-18,60.7,-18,83.8,0" class="g4_1" />
<text 
x="433" 
y="148" 
dx="0,0" 
class="s1_1"
>AS</text>

<text 
x="463" 
y="148" 
dx="0" 
class="s2_1"
>3</text>

<path d="M509.2,249.5c32.6,23.4,32.6,61.3,0,84.7c-32.6,23.4,-85.5,23.4,-118.1,0c-32.6,-23.4,-32.6,-61.3,0,-84.7c32.6,-23.4,85.5,-23.4,118.1,0Z" class="g6_1" />
<path d="M509.2,249.5c32.6,23.4,32.6,61.3,0,84.7c-32.6,23.4,-85.5,23.4,-118.1,0c-32.6,-23.4,-32.6,-61.3,0,-84.7c32.6,-23.4,85.5,-23.4,118.1,0" class="g4_1" />
<path d="M266.9,132.2c103.6,66.2,232.9,74,387.8,23.4" class="g7_1" />
<path d="M477.6,392.1c19.2,16.2,19.2,42.5,0,58.7c-19.1,16.2,-50.2,16.2,-69.3,0c-19.2,-16.2,-19.2,-42.5,0,-58.7c19.1,-16.2,50.2,-16.2,69.3,0Z" class="g1_1" />
<path d="M477.6,392.1c19.2,16.2,19.2,42.5,0,58.7c-19.1,16.2,-50.2,16.2,-69.3,0c-19.2,-16.2,-19.2,-42.5,0,-58.7c19.1,-16.2,50.2,-16.2,69.3,0" class="g4_1" />
<path d="M243.3,108.3l23.4,0l0,23.5l-23.4,0Z" class="g1_1" />
<image preserveAspectRatio="none" x="238" y="102" width="35" height="36" xlink:href="1/img/1.png" />
<path d="M200,158.1l23.4,0l0,23.5l-23.4,0Z" class="g1_1" />
<image preserveAspectRatio="none" x="194" y="152" width="36" height="36" xlink:href="1/img/2.png" />
<path d="M199,330.6l23.4,0l0,23.4L199,354Z" class="g1_1" />
<image preserveAspectRatio="none" x="194" y="324" width="35" height="37" xlink:href="1/img/3.png" />
<path d="M214.7,410.8l23.3,0l0,23.4l-23.3,0Z" class="g1_1" />
<path d="M659.8,138.3l23.3,0l0,23.5l-23.3,0Z" class="g1_1" />
<image preserveAspectRatio="none" x="653" y="132" width="37" height="36" xlink:href="1/img/4.png" />
<path d="M254.2,137.8c-3,12.9,-11.3,22,-25,27.4" class="g7_1" />
<path d="M637.4,268.9c19.9,16.7,19.8,43.8,-0.2,60.4c-20,16.6,-52.2,16.5,-72.1,-0.3c-19.8,-16.7,-19.8,-43.8,0.2,-60.4c20,-16.6,52.3,-16.5,72.1,0.3Z" class="g1_1" />
<path d="M637.4,268.9c19.9,16.7,19.8,43.8,-0.2,60.4c-20,16.6,-52.2,16.5,-72.1,-0.3c-19.8,-16.7,-19.8,-43.8,0.2,-60.4c20,-16.6,52.3,-16.5,72.1,0.3" class="g4_1" />
<path d="M668.9,345.1C619.6,320.3,621.4,302.6,674.2,292" class="g7_1" />
<path d="M680.1,277.5l23.3,0l0,23.4l-23.3,0Z" class="g1_1" />
<image preserveAspectRatio="none" x="673" y="270" width="37" height="37" xlink:href="1/img/5.png" />
<path d="M640.1,411.7c-56,-52.3,-46.9,-72.9,27.3,-62" class="g7_1" />
<text 
x="289" 
y="397" 
dx="0,0" 
class="s1_1"
>AS</text>

<text 
x="320" 
y="397" 
dx="0" 
class="s2_1"
>1</text>

<text 
x="421" 
y="420" 
dx="0,0" 
class="s1_1"
>AS</text>

<text 
x="451" 
y="420" 
dx="0" 
class="s2_1"
>7</text>

<path d="M225.9,352c25,18.8,28,37.1,8.9,54.9" class="g7_1" />
<text 
x="543" 
y="220" 
dx="0,0" 
class="s1_1"
>AS</text>

<text 
x="573" 
y="220" 
dx="0" 
class="s2_1"
>4</text>

<text 
x="224" 
y="104" 
dx="0" 
class="s3_1"
>A</text>

<image preserveAspectRatio="none" x="24" y="131" width="50" height="50" xlink:href="1/img/6.png" />
<image preserveAspectRatio="none" x="12" y="145" width="50" height="50" xlink:href="1/img/7.png" />
<path d="M193,240.9c-14,2.4,-27.7,1.1,-41.3,-3.9" class="g8_1" />
<path d="M206,407.1C150,363.1,122.4,306.4,123.2,237" class="g8_1" />
<image preserveAspectRatio="none" x="750" y="86" width="50" height="51" xlink:href="1/img/8.png" />
<image preserveAspectRatio="none" x="762" y="94" width="50" height="51" xlink:href="1/img/9.png" />
<image preserveAspectRatio="none" x="809" y="138" width="51" height="51" xlink:href="1/img/10.png" />
<image preserveAspectRatio="none" x="820" y="154" width="49" height="50" xlink:href="1/img/11.png" />
<path d="M695.3,229.1c7.8,-6.9,15.2,-12.4,22.3,-16.4" class="g8_1" />
<text 
x="80" 
y="229" 
dx="0,0,0,0,0,0,0" 
class="s4_1"
>Stratum</text>

<image preserveAspectRatio="none" x="76" y="65" width="49" height="49" xlink:href="1/img/12.png" />
<image preserveAspectRatio="none" x="64" y="72" width="50" height="51" xlink:href="1/img/13.png" />
<path d="M674.1,288.3C593.7,282.7,588.8,240.9,659.3,163" class="g7_1" />
<image preserveAspectRatio="none" x="192" y="218" width="37" height="35" xlink:href="1/img/14.png" />
<image preserveAspectRatio="none" x="203" y="399" width="35" height="37" xlink:href="1/img/15.png" />
<image preserveAspectRatio="none" x="664" y="224" width="37" height="36" xlink:href="1/img/16.png" />
<image preserveAspectRatio="none" x="635" y="405" width="37" height="37" xlink:href="1/img/17.png" />
<image preserveAspectRatio="none" x="667" y="335" width="35" height="35" xlink:href="1/img/18.png" />
<text 
x="720" 
y="215" 
dx="0,0,0,0,0,0,0" 
class="s4_1"
>Stratum</text>

<text 
x="178" 
y="163" 
dx="0" 
class="s3_1"
>B</text>

<text 
x="204" 
y="275" 
dx="0" 
class="s3_1"
>C</text>

<text 
x="218" 
y="324" 
dx="0" 
class="s3_1"
>D</text>

<text 
x="190" 
y="443" 
dx="0" 
class="s3_1"
>E</text>

<text 
x="668" 
y="452" 
dx="0" 
class="s3_1"
>F</text>

<text 
x="648" 
y="376" 
dx="0" 
class="s3_1"
>G</text>

<text 
x="706" 
y="279" 
dx="0" 
class="s3_1"
>H</text>

<text 
x="670" 
y="220" 
dx="0" 
class="s3_1"
>I</text>

<text 
x="680" 
y="125" 
dx="0" 
class="s3_1"
>J</text>

<text 
x="421" 
y="308" 
dx="0,0" 
class="s5_1"
>AS</text>

<text 
x="452" 
y="308" 
dx="0" 
class="s6_1"
>8</text>

<path d="M660,163.5C535.4,303.9,390.7,309.7,225.8,180.9" class="g9_1" />
<path d="M266.1,199.1l52.5,0l0,34.7l-52.5,0Z" class="g1_1" />
<text 
x="269" 
y="226" 
dx="0,0" 
class="s1_1"
>AS</text>

<text 
x="300" 
y="226" 
dx="0" 
class="s2_1"
>2</text>

<path d="M659.7,163.3C517.5,318.1,386,308.7,265.2,134.8" class="g9_1" />
<path d="M221.9,222.5c6.7,-11.5,6.6,-24.1,-0.1,-37.7" class="g7_1" />
<path d="M463.6,263.5l0.8,-1.1c13.8,-21.2,20.1,-38.1,19,-50.8" class="g10_1" />
<path d="M459.5,259.1l-1.7,13l11.4,-6.3Z" class="g11_1" />
<path d="M420.9,255.2l0.8,-1.1c19.9,-28.3,30.1,-49.9,30.6,-64.7" class="g10_1" />
<path d="M417,250.7l-2.2,13l11.7,-6.1Z" class="g11_1" />
<path d="M126.6,205.8c0,-19.9,-13.4,-40.2,-40.3,-61.1" class="g8_1" />
<path d="M759.2,191.4C761.1,179.5,774,168,798,156.7" class="g8_1" />
<path d="M639.7,412.2C498.8,298.2,363.5,296.1,233.9,405.9" class="g9_1" />
<path d="M481.4,339.6l0.8,1.1c18.2,27.7,27.1,58.1,26.9,91.4" class="g10_1" />
<path d="M487,337.3L475.5,331l1.9,13Z" class="g11_1" />
<path d="M668.4,346.1c-202.1,-79.7,-212,-57.2,-29.8,67.5" class="g12_1" />
<text 
x="544" 
y="411" 
dx="0,0" 
class="s1_1"
>AS</text>

<text 
x="575" 
y="411" 
dx="0" 
class="s2_1"
>6</text>

<text 
x="569" 
y="299" 
dx="0,0" 
class="s1_1"
>AS</text>

<text 
x="599" 
y="299" 
dx="0" 
class="s2_1"
>5</text>

<path d="M528.8,320l1.3,0c31.4,0.7,57.1,11.4,77.4,32.1" class="g10_1" />
<path d="M530,314.1l-11.6,6.1l11.8,5.7Z" class="g11_1" />
<text 
x="66" 
y="16" 
dx="0,0,0,0,0,0" 
class="s7_1"
>miners</text>

<path d="M100.3,54.9l0,-30.5" class="g13_1" />
<text 
x="59" 
y="441" 
dx="0,0,0,0,0,0,0" 
class="s7_1"
>mining </text>

<text 
x="59" 
y="467" 
dx="0,0,0,0" 
class="s7_1"
>pool</text>

<path d="M109.3,421.6l21.3,-21.4" class="g14_1" />
<path d="M329.5,523.6l-43,0" class="g15_1" />
<text 
x="354" 
y="531" 
dx="0,0,0,0,0,0,0,0,0" 
class="s8_1"
>hijacked </text>

<text 
x="447" 
y="531" 
dx="0,0,0,0,0,0,0,0,0,0,0,0,0,0" 
class="s9_1"
>connection by </text>

<text 
x="598" 
y="531" 
dx="0,0" 
class="s10_1"
>AS</text>

<text 
x="625" 
y="531" 
dx="0" 
class="s11_1"
>8</text>

<text 
x="354" 
y="501" 
dx="0,0,0,0,0,0,0,0" 
class="s8_1"
>bitcoin </text>

<text 
x="431" 
y="501" 
dx="0,0,0,0,0,0,0,0,0,0" 
class="s9_1"
>connection</text>

<path d="M327.3,493.4l-40.8,0" class="g16_1" />
<text 
x="354" 
y="562" 
dx="0,0,0,0,0,0,0,0,0,0,0,0,0,0,0,0,0,0,0,0" 
class="s8_1"
>private pool traffic</text>

<path d="M327.3,553.9l-40.8,0" class="g17_1" />
<path d="M238.2,420c135.8,16.4,268.3,18.2,397.4,5.5" class="g7_1" />
<path d="M227.6,348.7c11.5,4.5,23,8.9,34.5,13.4" class="g18_1" />
<path d="M237,410.6c8.6,-3.7,17.2,-7.4,25.9,-11.1" class="g18_1" />
<path d="M311.1,335.8c1.8,-26.9,3.6,-53.8,5.4,-80.7" class="g18_1" />
<path d="M266.3,134c6,7.7,12.1,15.4,18.2,23.1" class="g18_1" />
<path d="M256.4,183.1c-9.2,-2.8,-18.3,-5.5,-27.4,-8.3" class="g18_1" />
<path d="M256.6,221.8c-9.8,3,-19.5,6,-29.2,9" class="g18_1" />
<path d="M378.8,175c8.7,-4.1,17.5,-8.2,26.2,-12.3" class="g18_1" />
<path d="M506.6,163.3c8.2,3.9,16.5,7.9,24.8,11.8" class="g18_1" />
<path d="M389.9,250.3c-6.3,-4.3,-12.5,-8.6,-18.7,-12.9" class="g18_1" />
<path d="M510.6,250.4c8.8,-6,17.5,-12,26.2,-18" class="g18_1" />
<path d="M633.8,171.6c7.4,-4.3,14.8,-8.5,22.3,-12.8" class="g18_1" />
<path d="M637.7,222.9c9.4,3.9,18.8,7.8,28.3,11.8" class="g18_1" />
<path d="M651.9,293.4c7.4,-0.8,14.8,-1.6,22.2,-2.4" class="g18_1" />
<path d="M670,343c-9.4,-6,-18.7,-12,-28.1,-18" class="g18_1" />
<path d="M636.7,417.1c-4.2,-1.6,-8.4,-3.3,-12.6,-4.9" class="g18_1" />
<path d="M396.7,407.3C383,403.1,369.3,398.8,355.5,394.6" class="g18_1" />
<path d="M506.2,336.4c12.9,10.3,25.8,20.5,38.6,30.7" class="g18_1" />
<path d="M533.6,295.8c5.6,0.2,11.1,0.5,16.6,0.8" class="g18_1" />
<path d="M349.2,354.6c12.6,-7.9,25.1,-15.7,37.7,-23.5" class="g18_1" />
<path d="M490.8,412.1c13.5,-2.6,27.1,-5.3,40.6,-7.9" class="g18_1" />
<path d="M588.2,356.6c1.2,-5.2,2.4,-10.4,3.6,-15.6" class="g18_1" />
<path d="M700.8,343.9c29.5,-20.7,49.4,-61.1,59.7,-121.3" class="g8_1" />
<path d="M668.2,415.2C751.4,356.6,784.5,292.4,767.5,222.6" class="g19_1" />
<path d="M668.4,413.6c82,-57.1,114.9,-120.8,98.9,-191" class="g8_1" />
<path d="M655.8,158.4C526,225.1,383.6,231,228.7,175.9" class="g7_1" />
<image preserveAspectRatio="none" x="472" y="249" width="113" height="114" xlink:href="1/img/19.png" />
<image preserveAspectRatio="none" x="493" y="286" width="114" height="114" xlink:href="1/img/20.png" />
<text 
x="764" 
y="395" 
dx="0,0,0,0,0,0,0,0" 
class="s7_1"
>stealth </text>

<text 
x="764" 
y="423" 
dx="0,0,0,0,0,0,0,0,0,0" 
class="s7_1"
>connection</text>

<path d="M762.4,380.3L742.3,360.2" class="g14_1" />


<!-- Any embedded fonts defined here -->
<style type="text/css" ><![CDATA[

@font-face {
	font-family: LucidaSans_h;
	src: url("fonts/LucidaSans_h.woff") format("woff");
}

@font-face {
	font-family: LucidaSans-Italic_k;
	src: url("fonts/LucidaSans-Italic_k.woff") format("woff");
}

@font-face {
	font-family: LucidaGrande_e;
	src: url("fonts/LucidaGrande_e.woff") format("woff");
}

]]></style>

</svg>
