<svg id="Ebene_1" data-name="Ebene 1" xmlns="http://www.w3.org/2000/svg" xmlns:xlink="http://www.w3.org/1999/xlink" viewBox="0 0 270.16 90.53"><defs><style>.cls-1{fill:none;}.cls-2{clip-path:url(#clip-path);}.cls-3{fill:#fff;}.cls-4{fill:#212121;}.cls-5{fill:#929292;}.cls-6{fill:#a9a9a9;}.cls-7{fill:#ff7e79;}.cls-8{opacity:0.76;isolation:isolate;}.cls-9{clip-path:url(#clip-path-3);}.cls-10{clip-path:url(#clip-path-4);}.cls-11{fill:#fed28d;}.cls-12{clip-path:url(#clip-path-6);}.cls-13{clip-path:url(#clip-path-7);}.cls-14{clip-path:url(#clip-path-9);}.cls-15{clip-path:url(#clip-path-10);}.cls-16{clip-path:url(#clip-path-12);}.cls-17{clip-path:url(#clip-path-13);}</style><clipPath id="clip-path"><rect class="cls-1" x="-155.87" y="-59.92" width="595" height="448"/></clipPath><clipPath id="clip-path-3"><rect class="cls-1" x="45.13" y="46.08" width="21" height="21"/></clipPath><clipPath id="clip-path-4"><rect class="cls-1" x="44.13" y="44.08" width="23" height="25"/></clipPath><clipPath id="clip-path-6"><rect class="cls-1" x="22.13" y="46.08" width="23" height="21"/></clipPath><clipPath id="clip-path-7"><rect class="cls-1" x="21.13" y="44.08" width="24" height="25"/></clipPath><clipPath id="clip-path-9"><rect class="cls-1" x="22.13" y="22.08" width="22" height="22"/></clipPath><clipPath id="clip-path-10"><rect class="cls-1" x="21.13" y="21.08" width="24" height="25"/></clipPath><clipPath id="clip-path-12"><rect class="cls-1" x="45.13" y="22.08" width="22" height="22"/></clipPath><clipPath id="clip-path-13"><rect class="cls-1" x="44.13" y="21.08" width="24" height="25"/></clipPath></defs><title>Zeichenfläche 1</title><g class="cls-2"><rect class="cls-3" x="-155.87" y="-59.92" width="595" height="448.75"/><path class="cls-4" d="M111.7,39.08V26.86h1.7l6.11,9.43V26.86H121V39.08h-1.69l-6.11-9.43v9.43Z"/><path class="cls-4" d="M130.86,38.8a10.12,10.12,0,0,1-2.83.5,4.15,4.15,0,0,1-3.32-1.41,4.94,4.94,0,0,1-1.21-3.32,5.59,5.59,0,0,1,.53-2.4,3.91,3.91,0,0,1,1.4-1.69,3.69,3.69,0,0,1,2-.55A3.1,3.1,0,0,1,130,31a5.1,5.1,0,0,1,.94,3.34v.5h-5.74a4.64,4.64,0,0,0,.52,1.83,2.75,2.75,0,0,0,1,1,3.31,3.31,0,0,0,1.63.36,5.87,5.87,0,0,0,1-.09,10.34,10.34,0,0,0,1.53-.46Zm-5.64-5.16h4.06a2.79,2.79,0,0,0-.54-1.92,1.8,1.8,0,0,0-1.38-.58,1.87,1.87,0,0,0-1.49.62A3.27,3.27,0,0,0,125.22,33.63Z"/><path class="cls-4" d="M137.57,39.08a5,5,0,0,1-1.3.21,2.6,2.6,0,0,1-1.91-.7,2.66,2.66,0,0,1-.71-2V31.34h-1.12V30.11h1.12V28.49l1.62-.16v1.78h2.34v1.22h-2.34v5a2,2,0,0,0,.36,1.35,1.47,1.47,0,0,0,1.15.41,3.53,3.53,0,0,0,.78-.11Z"/><path class="cls-4" d="M140.93,39.08l-2.56-9H140l2,6.95L144,30.11h1.61l1.85,6.95,2.24-6.95h1.39l-2.91,9H146.6l-1.89-6.95-2.14,6.95Z"/><path class="cls-4" d="M156.43,39.29a4.49,4.49,0,0,1-2.22-.52,3.66,3.66,0,0,1-1.5-1.65,5.65,5.65,0,0,1-.55-2.52,5.86,5.86,0,0,1,.5-2.43,3.63,3.63,0,0,1,1.46-1.69,4.42,4.42,0,0,1,2.3-.57,4.55,4.55,0,0,1,2.22.52,3.59,3.59,0,0,1,1.49,1.65,5.69,5.69,0,0,1,.55,2.51,5.81,5.81,0,0,1-.51,2.44,3.66,3.66,0,0,1-1.46,1.69A4.4,4.4,0,0,1,156.43,39.29Zm0-1.22a2.2,2.2,0,0,0,1.88-.91A4.27,4.27,0,0,0,159,34.6a4.21,4.21,0,0,0-.67-2.57,2.41,2.41,0,0,0-3.75,0,4.24,4.24,0,0,0-.67,2.57,4.26,4.26,0,0,0,.67,2.57A2.19,2.19,0,0,0,156.43,38.07Z"/><path class="cls-4" d="M163.23,39.08v-9h1.62v1.68A3.6,3.6,0,0,1,166,30.4a2.83,2.83,0,0,1,1.6-.49,3.47,3.47,0,0,1,.52,0v1.52a2.32,2.32,0,0,0-.74-.14,2.39,2.39,0,0,0-1.41.46,4.15,4.15,0,0,0-1.16,1.38v5.92Z"/><path class="cls-4" d="M170.12,39.08V26h1.62v8.42l3.79-4.35h1.75l-3.62,4.18L178,39.08H176l-4.21-4.6v4.6Z"/><path class="cls-4" d="M186.63,38.8a10.12,10.12,0,0,1-2.83.5,4.15,4.15,0,0,1-3.32-1.41,4.94,4.94,0,0,1-1.21-3.32,5.61,5.61,0,0,1,.53-2.4,3.91,3.91,0,0,1,1.4-1.69,3.69,3.69,0,0,1,2-.55,3.1,3.1,0,0,1,2.5,1.11,5.09,5.09,0,0,1,.94,3.34v.5h-5.74a4.63,4.63,0,0,0,.52,1.83,2.74,2.74,0,0,0,1,1,3.31,3.31,0,0,0,1.63.36,5.87,5.87,0,0,0,1-.09,10.35,10.35,0,0,0,1.53-.46ZM181,33.63H185a2.79,2.79,0,0,0-.54-1.92,1.8,1.8,0,0,0-1.38-.58,1.87,1.87,0,0,0-1.49.62A3.27,3.27,0,0,0,181,33.63Z"/><path class="cls-4" d="M195.08,39.08V37.4a3.62,3.62,0,0,1-1.24,1.42,3.15,3.15,0,0,1-1.74.48,3,3,0,0,1-2.55-1.22,5.22,5.22,0,0,1-.91-3.2,5.93,5.93,0,0,1,1-3.55,3.25,3.25,0,0,1,2.79-1.42,3.85,3.85,0,0,1,1,.12,3,3,0,0,1,.83.35,3.72,3.72,0,0,1,.81.75V26h1.62v13Zm0-6.84a5,5,0,0,0-1.33-.93,3,3,0,0,0-1.06-.19,1.89,1.89,0,0,0-1.76,1,5.15,5.15,0,0,0-.57,2.58,4.48,4.48,0,0,0,.51,2.31,1.7,1.7,0,0,0,1.57.84,2.7,2.7,0,0,0,1.34-.37,5.05,5.05,0,0,0,1.3-1.11Z"/><path class="cls-4" d="M204.5,38.85V37.13a11.53,11.53,0,0,0,2.15.82,6.23,6.23,0,0,0,1.26.14,2.32,2.32,0,0,0,1.66-.57,1.82,1.82,0,0,0,.61-1.37,2.07,2.07,0,0,0-.32-1.12,4.9,4.9,0,0,0-1.61-1.23l-.84-.49a7.34,7.34,0,0,1-2.26-1.75,2.92,2.92,0,0,1-.58-1.76,3.1,3.1,0,0,1,.46-1.63A3.28,3.28,0,0,1,206.26,27a4,4,0,0,1,1.95-.43,10.41,10.41,0,0,1,3,.47v1.59a15.21,15.21,0,0,0-1.88-.65,4.74,4.74,0,0,0-1-.11,2,2,0,0,0-1.57.55,1.67,1.67,0,0,0-.51,1.13,1.58,1.58,0,0,0,.24.81,2.3,2.3,0,0,0,.65.7,12.92,12.92,0,0,0,1.12.7l.88.5A7.2,7.2,0,0,1,211.38,34a3.15,3.15,0,0,1,.57,1.86,3.33,3.33,0,0,1-1.09,2.48,4.44,4.44,0,0,1-3.2,1,9,9,0,0,1-1.26-.09A16,16,0,0,1,204.5,38.85Z"/><path class="cls-4" d="M214.89,42.35l1.45-3.26-3.46-9h1.75l2.56,6.75,2.73-6.75h1.53l-4.87,12.23Z"/><path class="cls-4" d="M222.84,38.77v-1.5a6.38,6.38,0,0,0,2.76.79,1.76,1.76,0,0,0,1.16-.38,1.18,1.18,0,0,0,.46-1A1.22,1.22,0,0,0,227,36a2.45,2.45,0,0,0-1.06-.69L225,35a4.08,4.08,0,0,1-1.6-1.06,2.19,2.19,0,0,1-.5-1.46,2.34,2.34,0,0,1,.78-1.8,3.32,3.32,0,0,1,2.32-.72,10.47,10.47,0,0,1,1.86.21l.34.07v1.36a8,8,0,0,0-2.17-.41,1.75,1.75,0,0,0-1.17.34,1,1,0,0,0-.39.8.94.94,0,0,0,.26.65,2.58,2.58,0,0,0,.92.59l.78.33a4.55,4.55,0,0,1,2,1.32,2.54,2.54,0,0,1,.43,1.42,2.5,2.5,0,0,1-.4,1.36,2.66,2.66,0,0,1-1.18,1,4.12,4.12,0,0,1-1.73.36A8.93,8.93,0,0,1,222.84,38.77Z"/><path class="cls-4" d="M235.75,39.08a5,5,0,0,1-1.3.21,2.6,2.6,0,0,1-1.91-.7,2.67,2.67,0,0,1-.71-2V31.34h-1.12V30.11h1.12V28.49l1.62-.16v1.78h2.34v1.22h-2.34v5a2,2,0,0,0,.36,1.35,1.46,1.46,0,0,0,1.15.41,3.54,3.54,0,0,0,.78-.11Z"/><path class="cls-4" d="M244.72,38.8a10.12,10.12,0,0,1-2.83.5,4.15,4.15,0,0,1-3.32-1.41,4.94,4.94,0,0,1-1.21-3.32,5.61,5.61,0,0,1,.53-2.4,3.91,3.91,0,0,1,1.4-1.69,3.69,3.69,0,0,1,2-.55,3.1,3.1,0,0,1,2.5,1.11,5.09,5.09,0,0,1,.94,3.34v.5H239a4.63,4.63,0,0,0,.52,1.83,2.74,2.74,0,0,0,1,1,3.31,3.31,0,0,0,1.63.36,5.87,5.87,0,0,0,1-.09,10.35,10.35,0,0,0,1.53-.46Zm-5.64-5.16h4.06a2.79,2.79,0,0,0-.54-1.92,1.8,1.8,0,0,0-1.38-.58,1.87,1.87,0,0,0-1.49.62A3.27,3.27,0,0,0,239.09,33.63Z"/><path class="cls-4" d="M247.45,39.08v-9h1.62v1.68a4.7,4.7,0,0,1,1.26-1.33,3,3,0,0,1,1.78-.55,2.52,2.52,0,0,1,1,.19,2.59,2.59,0,0,1,.79.54,3,3,0,0,1,.63,1.16,4.52,4.52,0,0,1,1.25-1.35,2.93,2.93,0,0,1,1.74-.54,2.73,2.73,0,0,1,1.72.6,2.46,2.46,0,0,1,.77,2.06v6.53h-1.62V32.81a1.56,1.56,0,0,0-.37-1.22,1.25,1.25,0,0,0-.84-.32,2.39,2.39,0,0,0-1.2.36,5.61,5.61,0,0,0-1.45,1.44v6h-1.62V32.81a1.56,1.56,0,0,0-.38-1.22,1.28,1.28,0,0,0-.86-.32,2.29,2.29,0,0,0-1.18.36,6,6,0,0,0-1.44,1.45v6Z"/><path class="cls-4" d="M262.86,38.77v-1.5a6.38,6.38,0,0,0,2.76.79,1.76,1.76,0,0,0,1.16-.38,1.18,1.18,0,0,0,.46-1A1.22,1.22,0,0,0,267,36a2.45,2.45,0,0,0-1.06-.69L265,35a4.08,4.08,0,0,1-1.6-1.06,2.19,2.19,0,0,1-.5-1.46,2.34,2.34,0,0,1,.78-1.8,3.32,3.32,0,0,1,2.32-.72,10.47,10.47,0,0,1,1.86.21l.34.07v1.36a8,8,0,0,0-2.17-.41,1.75,1.75,0,0,0-1.17.34,1,1,0,0,0-.39.8.94.94,0,0,0,.26.65,2.58,2.58,0,0,0,.92.59l.78.33a4.55,4.55,0,0,1,2,1.32,2.54,2.54,0,0,1,.43,1.42,2.5,2.5,0,0,1-.4,1.36,2.66,2.66,0,0,1-1.18,1,4.12,4.12,0,0,1-1.73.36A8.93,8.93,0,0,1,262.86,38.77Z"/><path class="cls-5" d="M112.38,62.08v-9.7h5.41v1h-4v3.11h3.39v1h-3.39v3.51h4.32v1Zm9.53,0V53.42h-3.43v-1h8.22v1h-3.43v8.67Zm6.16,0v-9.7h1.37v4.09H134V52.39h1.37v9.7H134V57.51h-4.59v4.58Zm13.42,0V61l5.19-7.57h-4.87v-1h6.51v1L143.14,61h5.19v1.1Zm13.18,0V60.75a3.75,3.75,0,0,1-1.14,1.11,2.57,2.57,0,0,1-1.34.39,2,2,0,0,1-1.46-.57,2.18,2.18,0,0,1-.56-1.6V55h1.29v4.69a2.35,2.35,0,0,0,.13,1,.92.92,0,0,0,.37.37,1,1,0,0,0,.51.13,2.19,2.19,0,0,0,1-.29,3.8,3.8,0,0,0,1.2-1.26V55H156v7.11Zm-3.47-8.41V52.55h1.13v1.13Zm2.58,0V52.55h1.13v1.13Zm4.75,8.41V55h1.29V56.3a2.85,2.85,0,0,1,.95-1.1,2.24,2.24,0,0,1,1.27-.39,2.74,2.74,0,0,1,.41,0V56a1.84,1.84,0,0,0-.59-.11,1.89,1.89,0,0,0-1.12.36,3.29,3.29,0,0,0-.92,1.09v4.7ZM164,53.68V52.39h1.29v1.29Zm0,8.41V55h1.29v7.11Zm8.74-.22a7.44,7.44,0,0,1-2.14.38,3.07,3.07,0,0,1-1.72-.51,3.27,3.27,0,0,1-1.18-1.35,4.37,4.37,0,0,1-.4-1.89,4,4,0,0,1,.86-2.63,3.23,3.23,0,0,1,2.66-1.05,8.36,8.36,0,0,1,1.84.23v1.08a6.45,6.45,0,0,0-1.75-.32,1.81,1.81,0,0,0-1.61.81,3.37,3.37,0,0,0-.54,1.92,3,3,0,0,0,.61,1.94,2,2,0,0,0,1.58.74,4.06,4.06,0,0,0,1.79-.45Zm2,.22V51.74H176V56.3a3.69,3.69,0,0,1,1.14-1.1,2.58,2.58,0,0,1,1.35-.39,2,2,0,0,1,1.46.57,2.18,2.18,0,0,1,.56,1.59v5.11h-1.29v-4.7a2.36,2.36,0,0,0-.13-1,.9.9,0,0,0-.37-.36,1,1,0,0,0-.5-.13,2.2,2.2,0,0,0-1,.3,3.8,3.8,0,0,0-1.2,1.26v4.61Z"/><rect class="cls-6" x="43.47" y="0.39" width="2.33" height="13.37"/><polygon class="cls-6" points="39.75 10.14 44.63 19.94 49.51 10.14 44.63 12.59 39.75 10.14"/><rect class="cls-6" x="43.28" y="75.84" width="2.33" height="14.4"/><polygon class="cls-6" points="49.32 79.46 44.44 69.66 39.56 79.46 44.44 77.01 49.32 79.46"/><rect class="cls-6" x="0.33" y="44.11" width="13.19" height="2.33"/><polygon class="cls-6" points="9.93 50.17 19.69 45.27 9.93 40.37 12.37 45.27 9.93 50.17"/><rect class="cls-7" x="69.04" y="43.53" width="17.28" height="3.49"/><polygon class="cls-7" points="81.08 52.27 95.03 45.27 81.08 38.27 84.57 45.27 81.08 52.27"/></g><g class="cls-2"><g class="cls-8"><g class="cls-9"><g class="cls-10"><rect class="cls-11" x="45.7" y="46.35" width="20.34" height="20.42"/></g></g></g></g><g class="cls-2"><g class="cls-8"><g class="cls-12"><g class="cls-13"><rect class="cls-11" x="22.91" y="46.35" width="20.34" height="20.42"/></g></g></g></g><g class="cls-2"><g class="cls-8"><g class="cls-14"><g class="cls-15"><rect class="cls-11" x="22.91" y="22.94" width="20.48" height="20.56"/></g></g></g></g><g class="cls-2"><g class="cls-8"><g class="cls-16"><g class="cls-17"><rect class="cls-11" x="45.7" y="22.89" width="20.58" height="20.66"/></g></g></g><path class="cls-5" d="M210.16,61.84V60.65a5.07,5.07,0,0,0,2.19.63,1.4,1.4,0,0,0,.92-.3.94.94,0,0,0,.37-.75,1,1,0,0,0-.18-.55,1.94,1.94,0,0,0-.84-.54l-.75-.32a3.24,3.24,0,0,1-1.27-.84,1.74,1.74,0,0,1-.4-1.16,1.86,1.86,0,0,1,.62-1.43,2.64,2.64,0,0,1,1.84-.57,8.3,8.3,0,0,1,1.47.16l.27.05V56.1a6.32,6.32,0,0,0-1.72-.33,1.38,1.38,0,0,0-.93.27.82.82,0,0,0-.31.64.75.75,0,0,0,.21.52,2.06,2.06,0,0,0,.73.47l.62.26a3.61,3.61,0,0,1,1.59,1,2,2,0,0,1,.34,1.13,2,2,0,0,1-.32,1.08,2.1,2.1,0,0,1-.93.78,3.26,3.26,0,0,1-1.37.28A7.08,7.08,0,0,1,210.16,61.84Z"/><path class="cls-5" d="M222.51,61.86a8,8,0,0,1-2.24.39,3.29,3.29,0,0,1-2.64-1.12,3.91,3.91,0,0,1-1-2.64,4.43,4.43,0,0,1,.42-1.91,3.1,3.1,0,0,1,1.11-1.34,2.93,2.93,0,0,1,1.61-.44,2.46,2.46,0,0,1,2,.88,4,4,0,0,1,.74,2.65v.39H218a3.66,3.66,0,0,0,.41,1.45,2.18,2.18,0,0,0,.81.8,2.63,2.63,0,0,0,1.29.29,4.62,4.62,0,0,0,.79-.07,8.08,8.08,0,0,0,1.21-.36ZM218,57.76h3.22a2.21,2.21,0,0,0-.43-1.53,1.42,1.42,0,0,0-1.09-.46,1.48,1.48,0,0,0-1.19.49A2.59,2.59,0,0,0,218,57.76Z"/><path class="cls-5" d="M224.67,53.68V52.39H226v1.29Zm0,8.41V55H226v7.11Z"/><path class="cls-5" d="M231.7,62.08a4,4,0,0,1-1,.16,2.06,2.06,0,0,1-1.51-.55,2.12,2.12,0,0,1-.56-1.58V55.94h-.89V55h.89V53.68l1.29-.12V55h1.85v1h-1.85v3.94a1.6,1.6,0,0,0,.29,1.07,1.16,1.16,0,0,0,.91.32,2.8,2.8,0,0,0,.62-.09Z"/><path class="cls-5" d="M237.59,62.08V61a8.84,8.84,0,0,1,2.27-2.87l.74-.66a5.14,5.14,0,0,0,1.11-1.33,2.64,2.64,0,0,0,.31-1.23,1.67,1.67,0,0,0-.5-1.28,1.87,1.87,0,0,0-1.33-.46,3.39,3.39,0,0,0-.69.07,4.22,4.22,0,0,0-.7.22,8.24,8.24,0,0,0-1,.49V52.76a5.93,5.93,0,0,1,2.56-.61,3,3,0,0,1,2.19.77,2.54,2.54,0,0,1,.8,1.91,3.12,3.12,0,0,1-.33,1.41A6.87,6.87,0,0,1,241.43,58l-.5.43a9,9,0,0,0-1.09,1.12,3.17,3.17,0,0,0-.7,1.4h4.2v1.13Z"/><path class="cls-5" d="M249.16,62.33a2.69,2.69,0,0,1-1.86-.7,4.11,4.11,0,0,1-1.15-1.89,8.65,8.65,0,0,1,0-5,4.1,4.1,0,0,1,1.15-1.89,2.83,2.83,0,0,1,3.72,0,4.09,4.09,0,0,1,1.15,1.89,8.7,8.7,0,0,1,0,5A4.13,4.13,0,0,1,251,61.62,2.68,2.68,0,0,1,249.16,62.33Zm0-1a1.6,1.6,0,0,0,1.53-1.13,9.56,9.56,0,0,0,0-6,1.6,1.6,0,0,0-3.07,0,9.62,9.62,0,0,0,0,6A1.6,1.6,0,0,0,249.16,61.36Z"/><path class="cls-5" d="M256.88,62.08V53.36h-1.53v-.81l2.82-.24v9.78Z"/><path class="cls-5" d="M263.46,62.12V61a4.89,4.89,0,0,0,1.83.39,1.86,1.86,0,0,0,1.54-.62,2.3,2.3,0,0,0,.5-1.49,2,2,0,0,0-.73-1.59,3.55,3.55,0,0,0-2.27-.6,5.76,5.76,0,0,0-.71,0V52.39h4.89v1.13h-3.77v2.55a4.16,4.16,0,0,1,3,.93,3.09,3.09,0,0,1,1,2.3,2.94,2.94,0,0,1-.87,2.14,3.65,3.65,0,0,1-2.71.88A7.88,7.88,0,0,1,263.46,62.12Z"/><rect class="cls-5" x="189.78" y="57.88" width="12.16" height="0.65"/></g></svg>